# xmcd
#
# Track frame offsets:
#	182
#	12250
#	27525
#	39200
#	50637
#	73387
#	85137
#	98512
#	118475
#	134212
#	147325
#	162125
#	172962
#	187400
#
# Disc length: 2642 seconds
#
# Revision: 3
# Processed by: cddbd v1.5.2PL0 Copyright (c) Steve Scherf et al.
# Submitted via: SynApp - FreeCDDB Version: 2.5
#
DISCID=d00a500e
DTITLE=Various Artist - Blues CD4
DYEAR=0
DGENRE=Blues
TTITLE0=Ray Charles/Goin' down slow
TTITLE1=Nina Simone/ Sugar in my bowl
TTITLE2=Sonny Boy Williams/Don't start to me talking
TTITLE3=John Lee Hooker/Boom Boom
TTITLE4=Big Bill Broonzy/Riding on down
TTITLE5=Leadbelly/My babe
TTITLE6=Mighty Joe Young/Empty arms
TTITLE7=Bobby Powell/A fool for you
TTITLE8=Memphis Slim/Three women blues
TTITLE9=Buster Brown/Fannie Mae
TTITLE10=Lightnin' Hopkins/Mojo hand
TTITLE11=Champion Jack Dupree/Shake, baby, shake
TTITLE12=Screamin' Jay Hawkins/I'm getting sick and tired
TTITLE13=Buster Brown/Is you is or is you ain't my baby
EXTD=
EXTT0=
EXTT1=
EXTT2=
EXTT3=
EXTT4=
EXTT5=
EXTT6=
EXTT7=
EXTT8=
EXTT9=
EXTT10=
EXTT11=
EXTT12=
EXTT13=
PLAYORDER=
